<svg xmlns="http://www.w3.org/2000/svg" baseProfile="basic" viewBox="0 0 100 100"><circle cx="49.987" cy="49.987" r="36.5" fill="#e9f6ff"/><path fill="none" stroke="#231f20" stroke-linecap="round" stroke-linejoin="round" stroke-miterlimit="10" d="M15.967,76.891	c-3.815-28.076,7.896-46.953,16.728-54.685S49.247,16.82,50,21.62c0.696,4.435-3.339,6.06-7.163,7.076	c-2.576,0.685-4.761,3.065-4.761,3.065"/><path fill="none" stroke="#231f20" stroke-linecap="round" stroke-linejoin="round" stroke-miterlimit="10" d="M23.761,43.239	c0,0,5.413-11.478,14.478-11.478s10.588,11.738,8.804,14.087c-1.644,2.165-3.411,2.119-4.528,1.763"/><path fill="none" stroke="#231f20" stroke-linecap="round" stroke-linejoin="round" stroke-miterlimit="10" d="M25.946,53.609	c0.391-4.011,5.031-12.159,10.957-11.454c6.652,0.791,6.641,11.49,6.652,15.954c0.014,5.332-5.723,7.582-8.804,3.592	c-1.895-2.453-2.091-7.831-2.091-7.831"/><path fill="none" stroke="#231f20" stroke-linecap="round" stroke-linejoin="round" stroke-miterlimit="10" d="M51.344,62.594	c-2.809,3.911-7.106,8.815,0.819,24.177"/><polyline fill="none" stroke="#231f20" stroke-linecap="round" stroke-linejoin="round" stroke-miterlimit="10" points="39.5,31.5 88.5,31.5 88.5,62.5 41.9,62.5"/><polyline fill="none" stroke="#231f20" stroke-linecap="round" stroke-linejoin="round" stroke-miterlimit="10" points="43.5,28.5 47.5,28.5 47.5,31.5"/><circle cx="63.5" cy="47.5" r="11" fill="none" stroke="#231f20" stroke-linecap="round" stroke-linejoin="round" stroke-miterlimit="10"/><circle cx="63.433" cy="47.433" r="6.933" fill="none" stroke="#231f20" stroke-linecap="round" stroke-linejoin="round" stroke-miterlimit="10"/><rect width="8" height="4" x="75.5" y="34.5" fill="none" stroke="#231f20" stroke-linecap="round" stroke-linejoin="round" stroke-miterlimit="10"/><line x1="47" x2="57" y1="38.5" y2="38.5" fill="none" stroke="#231f20" stroke-linejoin="round" stroke-miterlimit="10"/><line x1="70" x2="88.5" y1="38.5" y2="38.5" fill="none" stroke="#231f20" stroke-linejoin="round" stroke-miterlimit="10"/></svg>